<svg width="19" height="18" viewBox="0 0 19 18" fill="none" xmlns="http://www.w3.org/2000/svg">
<path d="M17 17.2929L11.0535 11.3464L10.7371 11.03L10.3876 11.3096C9.93396 11.6725 9.40824 11.9632 8.80606 12.1794C8.21353 12.3921 7.57933 12.5 6.89999 12.5C5.21283 12.5 3.80344 11.9213 2.64105 10.7589C1.47865 9.59655 0.899994 8.18716 0.899994 6.5C0.899994 4.81284 1.47865 3.40345 2.64105 2.24105C3.80344 1.07866 5.21283 0.5 6.89999 0.5C8.58715 0.5 9.99655 1.07866 11.1589 2.24105C12.3213 3.40345 12.9 4.81284 12.9 6.5C12.9 7.17934 12.7921 7.81354 12.5794 8.40607C12.3632 9.00825 12.0725 9.53397 11.7096 9.98765L11.43 10.3371L11.7464 10.6536L17.6929 16.6L17 17.2929ZM6.89999 11.5C8.28109 11.5 9.47121 11.0109 10.441 10.0411C11.4109 9.07122 11.9 7.88109 11.9 6.5C11.9 5.11891 11.4109 3.92878 10.441 2.95895C9.47121 1.98911 8.28109 1.5 6.89999 1.5C5.5189 1.5 4.32877 1.98911 3.35894 2.95895C2.38911 3.92878 1.89999 5.11891 1.89999 6.5C1.89999 7.88109 2.38911 9.07122 3.35894 10.0411C4.32877 11.0109 5.5189 11.5 6.89999 11.5Z" fill="#1C1B1F"/>
<path d="M17 17.2929L11.0535 11.3464L10.7371 11.03L10.3876 11.3096C9.93396 11.6725 9.40824 11.9632 8.80606 12.1794C8.21353 12.3921 7.57933 12.5 6.89999 12.5C5.21283 12.5 3.80344 11.9213 2.64105 10.7589C1.47865 9.59655 0.899994 8.18716 0.899994 6.5C0.899994 4.81284 1.47865 3.40345 2.64105 2.24105C3.80344 1.07866 5.21283 0.5 6.89999 0.5C8.58715 0.5 9.99655 1.07866 11.1589 2.24105C12.3213 3.40345 12.9 4.81284 12.9 6.5C12.9 7.17934 12.7921 7.81354 12.5794 8.40607C12.3632 9.00825 12.0725 9.53397 11.7096 9.98765L11.43 10.3371L11.7464 10.6536L17.6929 16.6L17 17.2929ZM6.89999 11.5C8.28109 11.5 9.47121 11.0109 10.441 10.0411C11.4109 9.07122 11.9 7.88109 11.9 6.5C11.9 5.11891 11.4109 3.92878 10.441 2.95895C9.47121 1.98911 8.28109 1.5 6.89999 1.5C5.5189 1.5 4.32877 1.98911 3.35894 2.95895C2.38911 3.92878 1.89999 5.11891 1.89999 6.5C1.89999 7.88109 2.38911 9.07122 3.35894 10.0411C4.32877 11.0109 5.5189 11.5 6.89999 11.5Z" stroke="black"/>
<path d="M17 17.2929L11.0535 11.3464L10.7371 11.03L10.3876 11.3096C9.93396 11.6725 9.40824 11.9632 8.80606 12.1794C8.21353 12.3921 7.57933 12.5 6.89999 12.5C5.21283 12.5 3.80344 11.9213 2.64105 10.7589C1.47865 9.59655 0.899994 8.18716 0.899994 6.5C0.899994 4.81284 1.47865 3.40345 2.64105 2.24105C3.80344 1.07866 5.21283 0.5 6.89999 0.5C8.58715 0.5 9.99655 1.07866 11.1589 2.24105C12.3213 3.40345 12.9 4.81284 12.9 6.5C12.9 7.17934 12.7921 7.81354 12.5794 8.40607C12.3632 9.00825 12.0725 9.53397 11.7096 9.98765L11.43 10.3371L11.7464 10.6536L17.6929 16.6L17 17.2929ZM6.89999 11.5C8.28109 11.5 9.47121 11.0109 10.441 10.0411C11.4109 9.07122 11.9 7.88109 11.9 6.5C11.9 5.11891 11.4109 3.92878 10.441 2.95895C9.47121 1.98911 8.28109 1.5 6.89999 1.5C5.5189 1.5 4.32877 1.98911 3.35894 2.95895C2.38911 3.92878 1.89999 5.11891 1.89999 6.5C1.89999 7.88109 2.38911 9.07122 3.35894 10.0411C4.32877 11.0109 5.5189 11.5 6.89999 11.5Z" stroke="black" stroke-opacity="0.2"/>
</svg>
